<?xml version="1.0" encoding="UTF-8" standalone="no"?>
<!-- Created with Inkscape (http://www.inkscape.org/) -->

<svg
   xmlns:dc="http://purl.org/dc/elements/1.1/"
   xmlns:cc="http://creativecommons.org/ns#"
   xmlns:rdf="http://www.w3.org/1999/02/22-rdf-syntax-ns#"
   xmlns:svg="http://www.w3.org/2000/svg"
   xmlns="http://www.w3.org/2000/svg"
   xmlns:sodipodi="http://sodipodi.sourceforge.net/DTD/sodipodi-0.dtd"
   xmlns:inkscape="http://www.inkscape.org/namespaces/inkscape"
   version="1.1"
   width="807.14252"
   height="326.98749"
   id="svg2"
   xml:space="preserve"
   inkscape:version="0.48.4 r9939"
   sodipodi:docname="fp.svg"><sodipodi:namedview
     pagecolor="#ffffff"
     bordercolor="#666666"
     borderopacity="1"
     objecttolerance="10"
     gridtolerance="10"
     guidetolerance="10"
     inkscape:pageopacity="0"
     inkscape:pageshadow="2"
     inkscape:window-width="1918"
     inkscape:window-height="1071"
     id="namedview80"
     showgrid="false"
     inkscape:zoom="5.4245751"
     inkscape:cx="418.78413"
     inkscape:cy="70.961947"
     inkscape:window-x="0"
     inkscape:window-y="32"
     inkscape:window-maximized="0"
     inkscape:current-layer="svg2" /><metadata
     id="metadata8"><rdf:RDF><cc:Work
         rdf:about=""><dc:format>image/svg+xml</dc:format><dc:type
           rdf:resource="http://purl.org/dc/dcmitype/StillImage" /><dc:title /></cc:Work></rdf:RDF></metadata><defs
     id="defs6"><clipPath
       id="clipPath22"><path
         d="m 0,261.59 645.714,0 L 645.714,0 0,0 0,261.59 z"
         id="path24" /></clipPath><clipPath
       id="clipPath42"><path
         d="m 0,261.59 645.714,0 L 645.714,0 0,0 0,261.59 z"
         id="path44" /></clipPath><clipPath
       id="clipPath56"><path
         d="m 0,261.59 645.714,0 L 645.714,0 0,0 0,261.59 z"
         id="path58" /></clipPath><clipPath
       id="clipPath70"><path
         d="m 0,261.59 645.714,0 L 645.714,0 0,0 0,261.59 z"
         id="path72" /></clipPath><clipPath
       id="clipPath104"><path
         d="m 0,261.59 645.714,0 L 645.714,0 0,0 0,261.59 z"
         id="path106" /></clipPath><clipPath
       id="clipPath128"><path
         d="m 0,261.59 645.714,0 L 645.714,0 0,0 0,261.59 z"
         id="path130" /></clipPath></defs><path
     inkscape:connector-curvature="0"
     style="fill:#231f20;fill-opacity:1;fill-rule:nonzero;stroke:none"
     id="path16"
     d="m 402.97375,135.165 -160,0 0,-20.58125 160,0 0,20.58125 z" /><g
     id="g18"
     transform="matrix(1.25,0,0,-1.25,0,326.9875)"><g
       id="g20"
       clip-path="url(#clipPath22)"><g
         id="g26"
         transform="translate(300.5127,161.6895)"><path
           inkscape:connector-curvature="0"
           style="fill:none;stroke:#ed1c24;stroke-width:4;stroke-linecap:butt;stroke-linejoin:miter;stroke-miterlimit:10;stroke-opacity:1;stroke-dasharray:none"
           id="path28"
           d="M 0,0 C 0,15.04 7.387,27.232 16.499,27.232 25.611,27.232 32.998,15.04 32.998,0 32.998,-15.04 25.611,-27.232 16.499,-27.232 7.387,-27.232 0,-15.04 0,0 z" /></g><path
         inkscape:connector-curvature="0"
         style="fill:#ffffff;fill-opacity:1;fill-rule:nonzero;stroke:#231f20;stroke-width:1;stroke-linecap:butt;stroke-linejoin:miter;stroke-miterlimit:10;stroke-opacity:1;stroke-dasharray:none"
         id="path30"
         d="m 199,111.497 -199,0 0,95.527 199,0 0,-95.527 z" /><path
         inkscape:connector-curvature="0"
         style="fill:none;stroke:#231f20;stroke-width:1;stroke-linecap:butt;stroke-linejoin:miter;stroke-miterlimit:10;stroke-opacity:1;stroke-dasharray:none"
         id="path32"
         d="m 645.714,184.125 -156,0 0,35.799 156,0 0,-35.799 z" /></g></g><text
     id="text34"
     x="654.63141"
     y="86.249626"
     style="font-size:15px"><tspan
       style="font-size:30px;font-variant:normal;font-weight:normal;font-stretch:normal;writing-mode:lr-tb;fill:#231f20;fill-opacity:1;fill-rule:nonzero;stroke:none;font-family:Arial;-inkscape-font-specification:ArialMT"
       id="tspan36"
       y="86.249626"
       x="654.63141 676.29138 692.97137 701.3114 722.97137 739.65137 749.64136">Network</tspan></text>
<g
     id="g38"
     transform="matrix(1.25,0,0,-1.25,0,326.9875)"><g
       id="g40"
       clip-path="url(#clipPath42)"><path
         inkscape:connector-curvature="0"
         style="fill:none;stroke:#231f20;stroke-width:1;stroke-linecap:butt;stroke-linejoin:miter;stroke-miterlimit:10;stroke-opacity:1;stroke-dasharray:none"
         id="path46"
         d="m 645.714,141.888 -156,0 0,35.799 156,0 0,-35.799 z" /></g></g><text
     id="text48"
     x="670.47363"
     y="139.04562"
     style="font-size:15px"><tspan
       style="font-size:30px;font-variant:normal;font-weight:normal;font-stretch:normal;writing-mode:lr-tb;fill:#231f20;fill-opacity:1;fill-rule:nonzero;stroke:none;font-family:Arial;-inkscape-font-specification:ArialMT"
       id="tspan50"
       y="139.04562"
       x="670.47363 692.13361 713.79364 732.12366">HDF5</tspan></text>
<g
     id="g52"
     transform="matrix(1.25,0,0,-1.25,0,326.9875)"><g
       id="g54"
       clip-path="url(#clipPath56)"><path
         inkscape:connector-curvature="0"
         style="fill:none;stroke:#231f20;stroke-width:1;stroke-linecap:butt;stroke-linejoin:miter;stroke-miterlimit:10;stroke-opacity:1;stroke-dasharray:none"
         id="path60"
         d="m 645.714,99.554 -156,0 0,35.799 156,0 0,-35.799 z" /></g></g><text
     id="text62"
     x="655.47363"
     y="191.96249"
     style="font-size:15px"><tspan
       style="font-size:30px;font-variant:normal;font-weight:normal;font-stretch:normal;writing-mode:lr-tb;fill:#231f20;fill-opacity:1;fill-rule:nonzero;stroke:none;font-family:Arial;-inkscape-font-specification:ArialMT"
       id="tspan64"
       y="191.96249"
       x="655.47363 677.13361 693.81366 702.15363 723.81366 745.47363">NetCDF</tspan></text>
<g
     id="g66"
     transform="matrix(1.25,0,0,-1.25,0,326.9875)"><g
       id="g68"
       clip-path="url(#clipPath70)"><path
         inkscape:connector-curvature="0"
         style="fill:none;stroke:#231f20;stroke-width:1;stroke-linecap:butt;stroke-linejoin:miter;stroke-miterlimit:10;stroke-opacity:1;stroke-dasharray:none"
         id="path74"
         d="m 645.714,57.887 -156,0 0,35.799 156,0 0,-35.799 z" /></g></g><text
     id="text76"
     x="682.97614"
     y="244.04625"
     style="font-size:15px"><tspan
       style="font-size:30px;font-variant:normal;font-weight:normal;font-stretch:normal;writing-mode:lr-tb;fill:#231f20;fill-opacity:1;fill-rule:nonzero;stroke:none;font-family:Arial;-inkscape-font-specification:ArialMT"
       id="tspan78"
       y="244.04625"
       x="682.97614 707.96613 727.97614">MPI</tspan></text>
<path
     inkscape:connector-curvature="0"
     style="fill:none;stroke:#2e3192;stroke-width:1.25;stroke-linecap:butt;stroke-linejoin:miter;stroke-miterlimit:10;stroke-opacity:1;stroke-dasharray:none"
     id="path88"
     d="m 495.51381,325.90923 -195,0 0,-44.74875 195,0 0,44.74875 z" /><g
     id="g12"
     transform="matrix(1.25,0,0,-1.25,392.0105,158.56775)"><path
       inkscape:connector-curvature="0"
       style="fill:#ed1c24;fill-opacity:1;fill-rule:nonzero;stroke:none"
       id="path14"
       d="m 0,0 0,-81.029 -2.241,0 5.644,-16.668 5.645,16.668 -2.24,0 L 6.808,0 0,0 z" /></g><text
     id="text90"
     x="314.07108"
     y="315.32761"
     style="font-size:15px"><tspan
       style="font-size:30px;font-variant:normal;font-weight:normal;font-stretch:normal;writing-mode:lr-tb;fill:#2e3192;fill-opacity:1;fill-rule:nonzero;stroke:none;font-family:Arial;-inkscape-font-specification:ArialMT"
       id="tspan92"
       y="315.32761"
       x="314.07108 333.53806 340.19806 355.19806 371.87808 388.55807 395.21808 401.87805 416.87805 433.55807 441.89807 448.55807 465.27106">Visualization</tspan></text>
<path
     inkscape:connector-curvature="0"
     style="fill:none;stroke:#231f20;stroke-width:1.25;stroke-linecap:butt;stroke-linejoin:miter;stroke-miterlimit:10;stroke-opacity:1;stroke-dasharray:none"
     id="path94"
     d="m 807.1425,44.7475 -195,0 0,-44.74875 195,0 0,44.74875 z" /><text
     id="text96"
     x="646.86761"
     y="34.165874"
     style="font-size:15px"><tspan
       style="font-size:30px;font-variant:normal;font-weight:normal;font-stretch:normal;writing-mode:lr-tb;fill:#231f20;fill-opacity:1;fill-rule:nonzero;stroke:none;font-family:Arial;-inkscape-font-specification:ArialMT"
       id="tspan98"
       y="34.165874"
       x="646.86761 668.52765 687.42761 715.74762 724.08765 742.4176 749.07764 755.73761">RAW File</tspan></text>
<g
     id="g100"
     transform="matrix(1.25,0,0,-1.25,0,326.9875)"><g
       id="g102"
       clip-path="url(#clipPath104)"><g
         id="g108"
         transform="translate(572.6636,45.0894)"><path
           inkscape:connector-curvature="0"
           style="fill:#231f20;fill-opacity:1;fill-rule:nonzero;stroke:none"
           id="path110"
           d="m 0,0 c 0,-2.734 -2.216,-4.95 -4.949,-4.95 -2.735,0 -4.95,2.216 -4.95,4.95 0,2.734 2.215,4.95 4.95,4.95 C -2.216,4.95 0,2.734 0,0" /></g><g
         id="g112"
         transform="translate(572.6636,30.0894)"><path
           inkscape:connector-curvature="0"
           style="fill:#231f20;fill-opacity:1;fill-rule:nonzero;stroke:none"
           id="path114"
           d="m 0,0 c 0,-2.734 -2.216,-4.95 -4.949,-4.95 -2.735,0 -4.95,2.216 -4.95,4.95 0,2.734 2.215,4.95 4.95,4.95 C -2.216,4.95 0,2.734 0,0" /></g><g
         id="g116"
         transform="translate(572.6636,13.8994)"><path
           inkscape:connector-curvature="0"
           style="fill:#231f20;fill-opacity:1;fill-rule:nonzero;stroke:none"
           id="path118"
           d="m 0,0 c 0,-2.733 -2.216,-4.95 -4.949,-4.95 -2.735,0 -4.95,2.217 -4.95,4.95 0,2.734 2.215,4.95 4.95,4.95 C -2.216,4.95 0,2.734 0,0" /></g></g></g><text
     id="text120"
     x="50.902748"
     y="137.15475"
     style="font-size:15px"><tspan
       style="font-size:30px;font-variant:normal;font-weight:normal;font-stretch:normal;writing-mode:lr-tb;fill:#231f20;fill-opacity:1;fill-rule:nonzero;stroke:none;font-family:Arial;-inkscape-font-specification:ArialMT"
       id="tspan122"
       y="137.15475"
       x="50.902748 70.91275 77.572754 102.56275 119.24275 125.90275 142.58275 150.92274 157.58275 174.26276">Simulation</tspan></text>
<g
     id="g124"
     transform="matrix(1.25,0,0,-1.25,0,326.9875)"><g
       id="g126"
       clip-path="url(#clipPath128)"><g
         id="g132"
         transform="translate(319.7046,161.6899)"><path
           inkscape:connector-curvature="0"
           style="fill:#231f20;fill-opacity:1;fill-rule:nonzero;stroke:none"
           id="path134"
           d="m 0,0 146.193,66.904 0.985,-2.152 21.785,16.525 -26.746,-5.684 0.984,-2.152 L -2.992,6.538 0,0 z" /></g><g
         id="g136"
         transform="translate(316.7124,155.2231)"><path
           inkscape:connector-curvature="0"
           style="fill:#231f20;fill-opacity:1;fill-rule:nonzero;stroke:none"
           id="path138"
           d="m 0,0 144.615,-70.25 -1.034,-2.128 26.608,-6.299 -21.398,17.022 -1.035,-2.128 L 3.142,6.467 0,0 z" /></g><g
         id="g140"
         transform="translate(314.7065,158.0845)"><path
           inkscape:connector-curvature="0"
           style="fill:#231f20;fill-opacity:1;fill-rule:nonzero;stroke:none"
           id="path142"
           d="m 0,0 149.619,0.015 0,-2.367 24.835,5.963 -24.835,5.959 0,-2.366 L -0.001,7.189 0,0 z" /></g><g
         id="g144"
         transform="translate(306.0752,158.0132)"><path
           inkscape:connector-curvature="0"
           style="fill:#231f20;fill-opacity:1;fill-rule:nonzero;stroke:none"
           id="path146"
           d="m 0,0 156.257,-37.847 -0.558,-2.299 27.341,-0.489 -24.532,12.075 -0.559,-2.299 L 1.693,6.987 0,0 z" /></g><g
         id="g148"
         transform="translate(306.2778,157.4263)"><path
           inkscape:connector-curvature="0"
           style="fill:#231f20;fill-opacity:1;fill-rule:nonzero;stroke:none"
           id="path150"
           d="m 0,0 156.844,35.333 0.519,-2.308 24.725,11.68 -27.343,-0.049 0.519,-2.309 L -1.58,7.014 0,0 z" /></g><path
         inkscape:connector-curvature="0"
         style="fill:#231f20;fill-opacity:1;fill-rule:nonzero;stroke:none"
         id="path152"
         d="m 294.711,153.458 -13,0 0,16.465 13,0 0,-16.465 z" /><path
         inkscape:connector-curvature="0"
         style="fill:#ffffff;fill-opacity:1;fill-rule:nonzero;stroke:#ed1c24;stroke-width:1;stroke-linecap:butt;stroke-linejoin:miter;stroke-miterlimit:10;stroke-opacity:1;stroke-dasharray:none"
         id="path154"
         d="m 407.206,66.353 -177,0 0,37.523 177,0 0,-37.523 z" /></g></g><text
     id="text156"
     x="293.84949"
     y="231.71162"
     style="font-size:15px"><tspan
       style="font-size:30px;font-variant:normal;font-weight:normal;font-stretch:normal;writing-mode:lr-tb;fill:#ed1c24;fill-opacity:1;fill-rule:nonzero;stroke:none;font-family:Arial;-inkscape-font-specification:ArialMT"
       id="tspan158"
       y="231.71162"
       x="293.84949 312.1795 322.16949 338.84949 355.52951 372.2095 382.19949 398.87952 413.87952 430.55951 445.55951 460.55951 467.21951 483.89951">Freeprocessing</tspan></text>
</svg>